PathFileType	4	(X/Y/Z)	/Users/niels/Desktop/University/Third Semester/Perception and Action/Exam/Gymnastics Motion Tracking/Code for Gym Tracking/Analyzed Data/Webcam_Backflip/id8_2_baseline_Sports2D/id8_2_baseline_Sports2D_px_person00.trc
DataRate	CameraRate	NumFrames	NumMarkers	Units	OrigDataRate	OrigDataStartFrame	OrigNumFrames
29.81132075471698	29.81132075471698	12	22	m	29.81132075471698	139	159
Frame#	Time	Hip			RHip			RKnee			RAnkle			RBigToe			RSmallToe			RHeel			LHip			LKnee			LAnkle			LBigToe			LSmallToe			LHeel			Neck			Head			Nose			RShoulder			RElbow			RWrist			LShoulder			LElbow			LWrist		
		X1	Y1	Z1	X2	Y2	Z2	X3	Y3	Z3	X4	Y4	Z4	X5	Y5	Z5	X6	Y6	Z6	X7	Y7	Z7	X8	Y8	Z8	X9	Y9	Z9	X10	Y10	Z10	X11	Y11	Z11	X12	Y12	Z12	X13	Y13	Z13	X14	Y14	Z14	X15	Y15	Z15	X16	Y16	Z16	X17	Y17	Z17	X18	Y18	Z18	X19	Y19	Z19	X20	Y20	Z20	X21	Y21	Z21	X22	Y22	Z22
139	4.662658227848101	0.9622343970700739	-0.5960765235031771	0.0	0.9578321252043457	-0.5946885605480093	0.0	0.9508014453231572	-0.6928161826361879	0.0	0.9369554931551624	-0.790392180633093	0.0	0.9755008934521157	-0.8086681510304171	0.0	0.9629050087045695	-0.8108753665219817	0.0	0.9291570262457134	-0.804128521735301	0.0	0.9674062697516597	-0.5946334531522152	0.0	0.9585664599082433	-0.6937605517403116	0.0	0.9463403886773608	-0.7859559464669392	0.0	0.9815322816320748	-0.8049940050630475	0.0	0.9779172030326738	-0.8019103130471497	0.0	0.9396308037051365	-0.797463955223132	0.0	0.969885788536696	-0.4595366709609671	0.0	0.9773676950401156	-0.3985442071442765	0.0	0.9976583944601956	-0.43015422589406804	0.0	0.9574795997445817	-0.48070056269653466	0.0	0.9540268817302123	-0.5492128889979827	0.0	0.9761167895434331	-0.6047524184769915	0.0	0.9727721794317845	-0.4810820109935191	0.0	0.9721657636811152	-0.5445770680460278	0.0	0.987109786702824	-0.5995651396862071	0.0
140	4.69620253164557	0.9626863575705233	-0.5930271540609017	0.0	0.9581565994348117	-0.5913130947044246	0.0	0.9517392463689309	-0.6897245193446996	0.0	0.9378948673838567	-0.7870164458486615	0.0	0.9749860712170771	-0.8064548089387751	0.0	0.9623235796001376	-0.808548082575275	0.0	0.9301997789613464	-0.8014298650744112	0.0	0.9678742102841182	-0.5911876978831617	0.0	0.9595497887805733	-0.6905764988305392	0.0	0.9468616200659243	-0.7825083008598392	0.0	0.981006749837387	-0.8025855385964551	0.0	0.9779150055765605	-0.7994998189490056	0.0	0.939843559754505	-0.7945233647943375	0.0	0.9700135561790957	-0.4567336352617731	0.0	0.9791602706172788	-0.3947688333544278	0.0	0.9981424484959361	-0.42708126279651676	0.0	0.957200630632873	-0.4772779832789361	0.0	0.9535365856196291	-0.5452013080269441	0.0	0.975621837763214	-0.601035685208452	0.0	0.9726052503626539	-0.47795255805555764	0.0	0.971199610074855	-0.5407643768737835	0.0	0.9853566990099011	-0.5966687534511665	0.0
141	4.729746835443038	0.9627606342756958	-0.588272698877264	0.0	0.9584114611921218	-0.5864270689106152	0.0	0.9530633744941661	-0.6851710015089169	0.0	0.9392285642809524	-0.7822073650073985	0.0	0.9749239104360018	-0.8029477189639439	0.0	0.9621386550561588	-0.8049028688246346	0.0	0.9316733042748054	-0.797329304919265	0.0	0.9676855939256094	-0.5861542249936385	0.0	0.9605718424030669	-0.6858819558211583	0.0	0.9473829244057651	-0.7775468922174273	0.0	0.9807308540920825	-0.7989216486359599	0.0	0.9780793939180272	-0.7957849065679853	0.0	0.9399028865497892	-0.7900959391714938	0.0	0.9701580829220593	-0.45289458386749576	0.0	0.981902167960251	-0.38977367447347566	0.0	0.9988061418116408	-0.4231439039923489	0.0	0.9570206834439933	-0.472762179877781	0.0	0.9529694783825131	-0.5398878443439445	0.0	0.9748347510268497	-0.5959175578130006	0.0	0.9721128699450872	-0.4736690055874376	0.0	0.9700731234322694	-0.5356686717429223	0.0	0.9836908481730383	-0.591993823147368	0.0
142	4.763291139240506	0.9623618423203913	-0.5822514615392187	0.0	0.9584688117768824	-0.580528516518884	0.0	0.9546848340932117	-0.6796410673851584	0.0	0.9409255287568407	-0.776564001282427	0.0	0.975514256381401	-0.7984198346449123	0.0	0.9626227106391416	-0.8003213719477265	0.0	0.9335065143599232	-0.7922998914184198	0.0	0.9668615452630401	-0.5800379604483915	0.0	0.9614894736379225	-0.6801984515514894	0.0	0.9478820436269754	-0.7717090044258155	0.0	0.9806851308461726	-0.794328707203446	0.0	0.9783113372504547	-0.7911309353379645	0.0	0.9398308472337972	-0.7846744646974042	0.0	0.9703330183102352	-0.44843631556312913	0.0	0.985576259077287	-0.3845036559431292	0.0	0.9996619633665298	-0.41908993745715445	0.0	0.9568846130818761	-0.467648673591121	0.0	0.95236804697823	-0.5339515782123426	0.0	0.9737574526359404	-0.590059422715227	0.0	0.9714621278257861	-0.4686660962761808	0.0	0.9689844637027344	-0.5299140371197707	0.0	0.9824320365258151	-0.5859840055314915	0.0
143	4.796835443037974	0.9614648604539535	-0.5756837419248331	0.0	0.9582126606938519	-0.5743163808667988	0.0	0.9564012862596043	-0.6738046276027814	0.0	0.942840016943972	-0.7708480585148976	0.0	0.9766532006980455	-0.7934150920780284	0.0	0.9637927526060397	-0.7954093032192587	0.0	0.9355688040717358	-0.7870567498683675	0.0	0.9654430835762589	-0.5735788729359832	0.0	0.9621144175040584	-0.6741871076146159	0.0	0.9482394931034399	-0.7657967255038419	0.0	0.9807227114825984	-0.7892929298154225	0.0	0.9783952239788785	-0.7860886802695662	0.0	0.9396138694340973	-0.7789954166748173	0.0	0.9705136769677282	-0.4438638611573346	0.0	0.989977334426626	-0.3799128248927871	0.0	1.000632314804461	-0.4156351004126403	0.0	0.9567450079677582	-0.4624681415837617	0.0	0.9517449838042126	-0.5280868988433475	0.0	0.9724472714531064	-0.5842723953462068	0.0	0.9707268309713408	-0.46344070484556493	0.0	0.9679989775015212	-0.5241828272223946	0.0	0.9817937010870348	-0.579299617867218	0.0
144	4.830379746835443	0.9601199425307783	-0.5694948034116795	0.0	0.9575684221677908	-0.5686250933363544	0.0	0.9579063190073833	-0.6684072655230782	0.0	0.9447045575364025	-0.7658206293478319	0.0	0.9780255462797509	-0.7886456520670293	0.0	0.9654144101917146	-0.7908564540889648	0.0	0.9376323806374798	-0.7823848417540784	0.0	0.9634935898630586	-0.5676501242409621	0.0	0.9622985243283235	-0.6685605531464298	0.0	0.9483419498231028	-0.7605979999272585	0.0	0.9807221705984693	-0.7844215312778682	0.0	0.9781969014787478	-0.7813124816494402	0.0	0.9392925929091943	-0.773871677450205	0.0	0.970674681291126	-0.4397520648178289	0.0	0.9947529473399433	-0.3767379104608065	0.0	1.001602462291269	-0.4133386089619164	0.0	0.9566118196243062	-0.45777097558202057	0.0	0.9510965426565899	-0.5229433794557256	0.0	0.9709932447795829	-0.5793939467744246	0.0	0.9698851544119641	-0.4585667981022235	0.0	0.9670498066387998	-0.519137708371488	0.0	0.9818732849943643	-0.5727186312118954	0.0
145	4.863924050632911	0.9584380278097667	-0.5646490283166757	0.0	0.9565254690020467	-0.5642897446630587	0.0	0.958875780175606	-0.6641892939187227	0.0	0.9462130129929239	-0.7621424273617272	0.0	0.9793218011513901	-0.784835270391452	0.0	0.9671541740359288	-0.7873149519763986	0.0	0.9394423395909768	-0.7789807121014242	0.0	0.961156906261006	-0.5631201662874995	0.0	0.9619887638881816	-0.6640523653326609	0.0	0.9481884966663933	-0.7568105719626664	0.0	0.9806767246239336	-0.7803967145122818	0.0	0.9777857629124088	-0.7774914612413383	0.0	0.9390227871939153	-0.770080695639976	0.0	0.9707979450876447	-0.43668845900368464	0.0	0.9994756495767007	-0.3754232616702652	0.0	1.0024846591924168	-0.4125510968160036	0.0	0.9565446568853488	-0.4540990652689904	0.0	0.9504147107927002	-0.5191129976579802	0.0	0.9694891197446552	-0.5761401590582242	0.0	0.9689064853925052	-0.45467334368468854	0.0	0.966039152034301	-0.5153459685162723	0.0	0.9826726110048456	-0.567011303243498	0.0
146	4.897468354430379	0.9565562673275182	-0.5619676935333078	0.0	0.9551676289725237	-0.5620211678285706	0.0	0.9591233534998218	-0.6618015118491237	0.0	0.947135493673302	-0.7603141120700793	0.0	0.9803642543909153	-0.78260284159739	0.0	0.9687179032307947	-0.7853411710642361	0.0	0.9407891023142688	-0.7773481864060983	0.0	0.9586237123182688	-0.5607217329208858	0.0	0.9612062053844064	-0.6613442125182452	0.0	0.9478292415466532	-0.7550074695532376	0.0	0.980634639962356	-0.777909339008104	0.0	0.9773279854454195	-0.7752793741112943	0.0	0.9389222289108756	-0.7682701977471859	0.0	0.9708708014251912	-0.4352131819900125	0.0	1.0037509256065158	-0.37615064067887144	0.0	1.0032259306192044	-0.41344628904652536	0.0	0.9566160519720486	-0.45195075225067266	0.0	0.9497154912260788	-0.5170908399844183	0.0	0.9680538492556139	-0.5749858794228205	0.0	0.9677933345843941	-0.45237360894724	0.0	0.9649487947854819	-0.5132680652879642	0.0	0.9841428442229806	-0.5628756912997626	0.0
147	4.931012658227848	0.9546069713769635	-0.5619650260876716	0.0	0.9536530543195834	-0.562280278529205	0.0	0.9586645022177116	-0.6616623416213997	0.0	0.9473674177077693	-0.7605981413665281	0.0	0.9810642578713847	-0.7823339633270036	0.0	0.9698908433738476	-0.7852842637062141	0.0	0.9415034388463954	-0.777728049895134	0.0	0.9560921991062061	-0.5609143597449885	0.0	0.9600495510347369	-0.6609122249615443	0.0	0.9472666891704478	-0.7554981908423101	0.0	0.980590932206317	-0.7774733935687129	0.0	0.9769142244568775	-0.7751218031368892	0.0	0.9389137853268811	-0.7687811816807283	0.0	0.9708889927285514	-0.4357292065892647	0.0	1.0072836352195151	-0.3788837944352769	0.0	1.003779233471454	-0.41607108224942546	0.0	0.9568537035894408	-0.45172488713186687	0.0	0.9490362369087116	-0.5171766825819314	0.0	0.9667981267439322	-0.5760752233887964	0.0	0.9665997668743093	-0.45214878452270024	0.0	0.9638808711237321	-0.5132600451341677	0.0	0.9861882894973991	-0.5608174797856774	0.0
148	4.964556962025316	0.9527024196004975	-0.5647234012071313	0.0	0.9521349299031073	-0.5651591604404604	0.0	0.9576466856046422	-0.6638385666539919	0.0	0.9469236389939345	-0.7629689948464853	0.0	0.9813555430051613	-0.7840717742090428	0.0	0.9705473569701627	-0.7871623580158882	0.0	0.9414753207780656	-0.7800782501601127	0.0	0.9537712355003755	-0.5637746272156239	0.0	0.9587536022750694	-0.6628851337285194	0.0	0.9464874928888722	-0.7581994490545314	0.0	0.9804854268995719	-0.7792194460124071	0.0	0.9765208099939883	-0.7770688809871628	0.0	0.938799498896853	-0.7715376136998254	0.0	0.9708414500270905	-0.43838256150503224	0.0	1.0098837244919945	-0.38340227897651713	0.0	1.0041003301659175	-0.42036089789768766	0.0	0.9571881118626707	-0.453633769755545	0.0	0.9484036214034537	-0.5194031799320178	0.0	0.9657537317226972	-0.5792083849786496	0.0	0.9654286573883428	-0.4542205054042973	0.0	0.9630036873089808	-0.5155091345295368	0.0	0.9885973525830001	-0.5609982131973922	0.0
149	4.998101265822784	0.9509535093461151	-0.5698561971238122	0.0	0.9507152551117792	-0.570326464122408	0.0	0.9562493718935519	-0.6680550397720144	0.0	0.9459426820365362	-0.7671528403015508	0.0	0.9812090273629277	-0.7875321966486759	0.0	0.9706681884375156	-0.7906857234522873	0.0	0.9407213344916932	-0.7841041545586899	0.0	0.9518882585908112	-0.5689553685345857	0.0	0.9576888447266381	-0.6670113624638871	0.0	0.9455645673667329	-0.7626756520320598	0.0	0.980273948601063	-0.7828596068106131	0.0	0.9760852466594703	-0.7807739286232819	0.0	0.9384493205360933	-0.7761203971261317	0.0	0.9706971375535167	-0.4429804699448419	0.0	1.0114556774111478	-0.3893381561129018	0.0	1.0041746675764405	-0.42611747174892795	0.0	0.9574579636009997	-0.4576187888882924	0.0	0.9478174958159311	-0.5235263368552863	0.0	0.9648596966487443	-0.5838827668690277	0.0	0.9644010307774377	-0.4584651609642463	0.0	0.962435012190797	-0.5199102541464146	0.0	0.9909936944985565	-0.5632262000819201	0.0
150	5.031645569620253	0.9494942603796687	-0.5765939802414871	0.0	0.9494612595600119	-0.5770723679785503	0.0	0.9546323914509093	-0.6737615098860116	0.0	0.9446769323637972	-0.7726946140112919	0.0	0.9807098981503519	-0.7922128242305935	0.0	0.9703585649890761	-0.7953841235596724	0.0	0.939404049692125	-0.7893069276494852	0.0	0.9506582641222966	-0.5757360349354156	0.0	0.9572672709217268	-0.6727009604583314	0.0	0.9446826113902214	-0.7682678769672158	0.0	0.9799884736193756	-0.7877977211125988	0.0	0.9756059826893798	-0.785648600908797	0.0	0.9379086106828635	-0.7818928516160926	0.0	0.9704149714499809	-0.4490007729038633	0.0	1.0119846658874059	-0.39619840546983837	0.0	1.0040314891405884	-0.43296251804955876	0.0	0.957474881958578	-0.4632940907942559	0.0	0.9472552267702241	-0.5290412837738082	0.0	0.9639906207196124	-0.589375043541965	0.0	0.9636172880461683	-0.4644075995821625	0.0	0.9621524595895421	-0.5259931220023514	0.0	0.992905539614643	-0.5670982448817009	0.0
